<?xml version="1.0" encoding="UTF-8"?>
<svg version="1.1" xmlns="http://www.w3.org/2000/svg" width="350" height="350">
<path d="M0 0 C6.17666654 4.10957495 10.53266192 8.19917802 13.06640625 15.26953125 C13.3200918 16.78646732 13.5496088 18.30765796 13.75390625 19.83203125 C14.51283975 24.30739166 16.63456864 25.88821314 20.19140625 28.58203125 C21.55652344 29.50435547 21.55652344 29.50435547 22.94921875 30.4453125 C23.99722656 31.34830078 23.99722656 31.34830078 25.06640625 32.26953125 C25.06640625 33.58953125 25.06640625 34.90953125 25.06640625 36.26953125 C22.8359375 38.06640625 22.8359375 38.06640625 19.87890625 40.01953125 C14.7296799 43.99817996 12.89896606 47.11786297 11.31640625 53.20703125 C8.32051838 64.71614495 2.36734139 72.95383073 -7.93359375 79.26953125 C-15.68638373 83.54821616 -23.32136721 83.92337719 -31.96313477 83.84594727 C-34.1013841 83.83215835 -36.23516996 83.86615126 -38.37304688 83.90429688 C-48.43671017 83.95901472 -56.58134047 82.01511088 -65.93359375 78.26953125 C-66.76761719 77.93727539 -67.60164063 77.60501953 -68.4609375 77.26269531 C-75.22681151 74.40899079 -80.28623709 69.1009255 -83.93359375 62.83203125 C-85.1424371 58.52552682 -85.20524053 54.70642873 -84.93359375 50.26953125 C-80.1957021 51.71276594 -75.94501224 53.64179858 -71.55859375 55.89453125 C-70.91792969 56.219375 -70.27726562 56.54421875 -69.6171875 56.87890625 C-68.05411874 57.67210532 -66.49358753 58.47030156 -64.93359375 59.26953125 C-63.63583419 52.07662984 -62.80500262 44.96851649 -62.28125 37.68359375 C-61.28128624 24.03496553 -59.68729646 12.44478885 -49.24609375 2.64453125 C-35.55001895 -8.92673195 -14.97393038 -8.83282444 0 0 Z M-36.20703125 9.5546875 C-40.91817261 14.23385279 -43.01892936 19.89317595 -43.24609375 26.45703125 C-43.14779474 32.43361084 -41.35914478 37.50624526 -37.390625 42.02734375 C-32.51416774 46.46860231 -27.09751666 49.74221077 -20.55859375 50.83203125 C-13.10171732 49.67492973 -6.80783817 46.03000193 -1.93359375 40.26953125 C-1.37671875 39.65078125 -0.81984375 39.03203125 -0.24609375 38.39453125 C3.05078109 33.05673389 3.46158021 27.83376926 2.66796875 21.76171875 C0.80990752 14.06403652 -4.43053379 9.27157122 -10.80859375 5.01953125 C-20.09546102 1.74181339 -28.65091601 3.39841034 -36.20703125 9.5546875 Z " fill="#0C9476" transform="translate(107.93359375,136.73046875)"/>
<path d="M0 0 C5.04663371 2.82611488 8.97669864 6.93009592 10.8125 12.4375 C11.34615648 18.40008491 11.38431177 23.4146397 7.8125 28.4375 C2.68072483 33.59065756 -0.98198434 36.5521581 -8.4375 36.75 C-13.95980167 36.69164014 -16.78907417 35.75876032 -21.1875 32.4375 C-26.26561266 27.08489477 -27.67959737 22.25379015 -27.49609375 15 C-26.90327172 10.07732592 -25.14842874 6.2290758 -21.46875 2.8671875 C-14.92092704 -1.98818969 -7.631152 -3.4340184 0 0 Z M-16.3125 7.9375 C-17.26125 8.7625 -18.21 9.5875 -19.1875 10.4375 C-17.2075 11.4275 -17.2075 11.4275 -15.1875 12.4375 C-13.10772703 11.21159808 -13.10772703 11.21159808 -11.1875 9.4375 C-11.1875 8.1175 -11.1875 6.7975 -11.1875 5.4375 C-13.77676331 5.4375 -14.38801661 6.26403618 -16.3125 7.9375 Z M-20.1875 14.4375 C-20.1875 15.0975 -20.1875 15.7575 -20.1875 16.4375 C-19.1975 16.1075 -18.2075 15.7775 -17.1875 15.4375 C-18.1775 15.1075 -19.1675 14.7775 -20.1875 14.4375 Z " fill="#3D3A3A" transform="translate(96.1875,145.5625)"/>
<path d="M0 0 C3.3 0 6.6 0 10 0 C12.79640945 5.59281889 12.33530405 10.67114146 12.31567383 16.84448242 C12.31251523 18.92745363 12.33598519 21.0090012 12.36132812 23.09179688 C12.36197266 24.41115234 12.36261719 25.73050781 12.36328125 27.08984375 C12.36626221 28.29503662 12.36924316 29.50022949 12.37231445 30.74194336 C11.96641626 34.29388528 11.13628772 36.16332706 9 39 C3.30241743 42.25858275 -3.66233097 41.60996345 -10 41 C-14.07646556 39.55687168 -16.76003631 36.6546776 -19 33 C-20.7354912 27.7935264 -20.66344383 22.85065911 -18.8125 17.6875 C-16.4417781 14.17229166 -13.78719238 11.89359619 -10 10 C-8.29297265 9.93003986 -6.58331997 9.91559846 -4.875 9.9375 C-3.26625 9.958125 -1.6575 9.97875 0 10 C0 6.7 0 3.4 0 0 Z M-5.6875 18.875 C-8.38062707 21.34976542 -8.4134736 21.98068421 -8.5625 25.5 C-8.38445312 28.62345098 -8.27671829 29.66398494 -6.25 32.125 C-3.74988613 33.34665364 -3.74988613 33.34665364 0 32 C0 27.71 0 23.42 0 19 C-2.94573268 17.68787185 -2.94573268 17.68787185 -5.6875 18.875 Z " fill="#0F9275" transform="translate(202,160)"/>
<path d="M0 0 C1.60294922 0.00773438 1.60294922 0.00773438 3.23828125 0.015625 C4.35332031 0.03625 5.46835938 0.056875 6.6171875 0.078125 C8.30134766 0.08585938 8.30134766 0.08585938 10.01953125 0.09375 C18.33828411 0.17422161 18.33828411 0.17422161 19.4921875 1.328125 C19.1621875 3.638125 18.8321875 5.948125 18.4921875 8.328125 C13.5421875 8.328125 8.5921875 8.328125 3.4921875 8.328125 C3.4921875 9.978125 3.4921875 11.628125 3.4921875 13.328125 C8.1121875 13.328125 12.7321875 13.328125 17.4921875 13.328125 C17.4921875 15.638125 17.4921875 17.948125 17.4921875 20.328125 C16.4921875 21.328125 16.4921875 21.328125 13.55078125 21.42578125 C12.35582031 21.41417969 11.16085938 21.40257812 9.9296875 21.390625 C8.13337891 21.37708984 8.13337891 21.37708984 6.30078125 21.36328125 C5.37394531 21.35167969 4.44710937 21.34007812 3.4921875 21.328125 C3.4921875 23.638125 3.4921875 25.948125 3.4921875 28.328125 C5.09900391 28.31072266 5.09900391 28.31072266 6.73828125 28.29296875 C8.13541493 28.28359201 9.53255049 28.27449169 10.9296875 28.265625 C11.63673828 28.25724609 12.34378906 28.24886719 13.07226562 28.24023438 C14.87912309 28.23158912 16.68606353 28.27592489 18.4921875 28.328125 C19.4921875 29.328125 19.4921875 29.328125 19.6171875 32.328125 C19.4921875 35.328125 19.4921875 35.328125 18.4921875 36.328125 C14.35323192 36.60873216 10.20202527 36.55992494 6.0546875 36.578125 C4.88357422 36.59875 3.71246094 36.619375 2.50585938 36.640625 C1.38888672 36.64578125 0.27191406 36.6509375 -0.87890625 36.65625 C-1.90943115 36.6655957 -2.93995605 36.67494141 -4.00170898 36.68457031 C-4.82872314 36.56694336 -5.6557373 36.44931641 -6.5078125 36.328125 C-9.69906095 31.54125232 -8.84107528 26.04641259 -8.82348633 20.44921875 C-8.82032341 18.3354145 -8.84380263 16.22300654 -8.86914062 14.109375 C-8.87141345 12.76562676 -8.87211719 11.42187477 -8.87109375 10.078125 C-8.87407471 8.85609375 -8.87705566 7.6340625 -8.88012695 6.375 C-8.5078125 3.328125 -8.5078125 3.328125 -7.3293457 1.42675781 C-4.80025781 -0.09862693 -2.94343873 -0.02797304 0 0 Z " fill="#0D9376" transform="translate(159.5078125,163.671875)"/>
<path d="M0 0 C1.29808594 -0.00773438 2.59617187 -0.01546875 3.93359375 -0.0234375 C8.5548811 0.48395896 11.0991134 1.71862957 14.16943359 5.19384766 C16.59030103 8.98424893 16.11560614 12.99119932 16.125 17.375 C16.16173828 18.27734375 16.19847656 19.1796875 16.23632812 20.109375 C16.27980863 26.64111259 16.27980863 26.64111259 13.02734375 29.96875 C9.09662295 31.56408201 5.74084607 31.96924841 1.5625 31.875 C0.53382813 31.89820313 0.53382813 31.89820313 -0.515625 31.921875 C-5.60112229 31.88305441 -8.53371527 30.56467777 -12.4375 27.375 C-14.00221233 24.24557535 -14.13451958 20.76417777 -13.4375 17.375 C-10.45711039 13.36714112 -7.47754468 12.58300894 -2.6875 11.625 C-1.51703125 11.38265625 -0.3465625 11.1403125 0.859375 10.890625 C1.75140625 10.72046875 2.6434375 10.5503125 3.5625 10.375 C-0.06167152 9.66986792 -3.10425609 9.25203793 -6.75 9.875 C-7.966875 10.04 -9.18375 10.205 -10.4375 10.375 C-11.4375 9.375 -11.4375 9.375 -11.75 6.5 C-11.4375 3.375 -11.4375 3.375 -9.8828125 1.703125 C-6.50144826 -0.13339871 -3.82918484 -0.02277018 0 0 Z M-2.4375 20.375 C-2.4375 21.035 -2.4375 21.695 -2.4375 22.375 C0.57281744 23.30923645 1.42900268 23.41949911 4.5625 22.375 C4.5625 21.055 4.5625 19.735 4.5625 18.375 C1.45698334 18.375 0.20988916 18.9143715 -2.4375 20.375 Z " fill="#0C9475" transform="translate(315.4375,169.625)"/>
<path d="M0 0 C1.62463842 -0.05395478 3.24978541 -0.09277195 4.875 -0.125 C5.77992188 -0.14820313 6.68484375 -0.17140625 7.6171875 -0.1953125 C10 0 10 0 12 2 C12.31884766 3.87939453 12.31884766 3.87939453 12.4140625 6.1328125 C12.45273438 6.93847656 12.49140625 7.74414062 12.53125 8.57421875 C12.5621875 9.41597656 12.593125 10.25773438 12.625 11.125 C12.66367188 11.97449219 12.70234375 12.82398438 12.7421875 13.69921875 C12.83656494 15.79911684 12.91937586 17.89952891 13 20 C14.98 20.33 16.96 20.66 19 21 C19 14.07 19 7.14 19 0 C22.3 0 25.6 0 29 0 C31.4630713 4.92614261 31.36724022 8.53281581 31.375 13.9375 C31.39949219 14.83146484 31.42398438 15.72542969 31.44921875 16.64648438 C31.46817804 20.90284562 31.38904112 23.35021855 29.1640625 27.06640625 C25.31018295 30.50985459 21.60885479 30.19125122 16.625 30.25 C15.31789062 30.27578125 14.01078125 30.3015625 12.6640625 30.328125 C8.09650976 29.91909043 5.71325096 28.40731329 2.25 25.5625 C-0.19326717 22.50841604 -0.12190175 19.01667346 -0.09765625 15.234375 C-0.09443359 14.34492188 -0.09121094 13.45546875 -0.08789062 12.5390625 C-0.07532227 11.15847656 -0.07532227 11.15847656 -0.0625 9.75 C-0.05798828 8.81414062 -0.05347656 7.87828125 -0.04882812 6.9140625 C-0.03706918 4.60930959 -0.02063426 2.30468773 0 0 Z " fill="#119276" transform="translate(218,171)"/>
<path d="M0 0 C4.47162637 2.11813881 7.04275148 4.4330868 9 9 C9.4375 12.125 9.4375 12.125 9 15 C5.70681226 18.3585612 2.2958696 18.64031199 -2.25 19.1875 C-3.51328125 19.34605469 -4.7765625 19.50460938 -6.078125 19.66796875 C-7.04234375 19.77753906 -8.0065625 19.88710937 -9 20 C-5.55824478 22.14699969 -3.2279708 22.09856795 0.75 21.625 C1.73484375 21.51414063 2.7196875 21.40328125 3.734375 21.2890625 C4.48203125 21.19367188 5.2296875 21.09828125 6 21 C6.66 22.65 7.32 24.3 8 26 C6.36777321 28.51111813 5.57106795 29.56000264 3 31 C-2.95662064 31.87896475 -9.5813445 32.18746778 -15.125 29.5 C-19.23104305 25.92952779 -21.45288796 22.31997532 -22.34375 16.9140625 C-22.55957583 12.21985065 -21.56088139 8.88547521 -19 5 C-12.91927914 -0.4874798 -8.03185974 -0.75593974 0 0 Z M-7 8 C-9.27144074 9.85432087 -9.27144074 9.85432087 -11 12 C-6.85906302 12.20970559 -6.85906302 12.20970559 -3 11 C-3 10.34 -3 9.68 -3 9 C-4.78141747 8.13641377 -4.78141747 8.13641377 -7 8 Z " fill="#0F9276" transform="translate(274,170)"/>
<path d="M0 0 C6.42276138 0.16354254 12.30887171 1.25774225 17 6 C17 7.32 17 8.64 17 10 C20.465 9.505 20.465 9.505 24 9 C30.12878486 18.23172311 30.12878486 18.23172311 30.75 23.625 C31.46042684 28.08490186 33.58935513 29.63353099 37.125 32.3125 C38.49011719 33.23482422 38.49011719 33.23482422 39.8828125 34.17578125 C40.93082031 35.07876953 40.93082031 35.07876953 42 36 C42 37.32 42 38.64 42 40 C39.76953125 41.796875 39.76953125 41.796875 36.8125 43.75 C29.47316721 49.37745233 27.94417916 56.2458231 26 65 C25.12977911 62.1459189 24.91775841 61.23575921 25.9375 58.3125 C27.28344226 54.11632707 27.17460528 50.36513192 27 46 C26.236875 46.04125 25.47375 46.0825 24.6875 46.125 C22 46 22 46 19 44 C18.01 44 17.02 44 16 44 C15.896875 44.639375 15.79375 45.27875 15.6875 45.9375 C15.460625 46.618125 15.23375 47.29875 15 48 C13.515 48.495 13.515 48.495 12 49 C11.34 49.99 10.68 50.98 10 52 C7.6171875 52.73046875 7.6171875 52.73046875 4.875 53.1875 C3.96492188 53.34605469 3.05484375 53.50460938 2.1171875 53.66796875 C1.41851562 53.77753906 0.71984375 53.88710937 0 54 C1.32567878 51.34864245 2.52350268 51.24830608 5.25 50.1875 C10.6352684 47.89298182 13.75476148 44.86785778 17 40 C17.99 40 18.98 40 20 40 C20.05791844 36.87507749 20.09356746 33.75029234 20.125 30.625 C20.14175781 29.73554688 20.15851563 28.84609375 20.17578125 27.9296875 C20.18222656 27.07890625 20.18867187 26.228125 20.1953125 25.3515625 C20.20578613 24.56604004 20.21625977 23.78051758 20.22705078 22.97119141 C20.17990127 20.765535 20.17990127 20.765535 18 19 C18 17.68 18 16.36 18 15 C17.4225 14.9175 16.845 14.835 16.25 14.75 C13.36130421 13.7871014 12.10880839 12.17271168 10 10 C6.49543048 7.60213664 3.05744829 6.22667041 -1 5 C-0.67 3.35 -0.34 1.7 0 0 Z " fill="#119375" transform="translate(91,133)"/>
<path d="M0 0 C1.64574566 -0.02688151 3.29161413 -0.04634123 4.9375 -0.0625 C5.85402344 -0.07410156 6.77054687 -0.08570313 7.71484375 -0.09765625 C10 0 10 0 11 1 C11.08865208 3.8843382 11.11521296 6.74462158 11.09765625 9.62890625 C11.0962413 10.49313705 11.09482635 11.35736786 11.09336853 12.24778748 C11.08775239 15.01939292 11.07519719 17.7909188 11.0625 20.5625 C11.05748708 22.4368478 11.05292381 24.31119685 11.04882812 26.18554688 C11.03777772 30.79039544 11.0205023 35.39518421 11 40 C9.35425434 40.02688151 7.70838587 40.04634123 6.0625 40.0625 C5.14597656 40.07410156 4.22945313 40.08570313 3.28515625 40.09765625 C1 40 1 40 0 39 C-0.08865208 36.1156618 -0.11521296 33.25537842 -0.09765625 30.37109375 C-0.0962413 29.50686295 -0.09482635 28.64263214 -0.09336853 27.75221252 C-0.08775239 24.98060708 -0.07519719 22.2090812 -0.0625 19.4375 C-0.05748708 17.5631522 -0.05292381 15.68880315 -0.04882812 13.81445312 C-0.03777772 9.20960456 -0.0205023 4.60481579 0 0 Z " fill="#0A9476" transform="translate(287,160)"/>
<path d="M0 0 C1.27914399 0.90503358 2.55337558 1.81731525 3.8125 2.75 C3.4825 3.41 3.1525 4.07 2.8125 4.75 C1.1625 4.75 -0.4875 4.75 -2.1875 4.75 C-2.28998047 3.84507812 -2.28998047 3.84507812 -2.39453125 2.921875 C-3.76868482 -0.84181654 -7.14291155 -1.65653813 -10.59765625 -3.27734375 C-13.59293873 -4.40226884 -16.01319536 -4.66767166 -19.1875 -4.25 C-19.1875 -2.93 -19.1875 -1.61 -19.1875 -0.25 C-18.3625 -0.023125 -17.5375 0.20375 -16.6875 0.4375 C-12.26910504 2.09439811 -6.39371113 4.33757775 -4.1875 8.75 C-3.1975 9.08 -2.2075 9.41 -1.1875 9.75 C2.61380281 17.7749726 2.67701143 26.12663462 0.8125 34.75 C0.1525 34.75 -0.5075 34.75 -1.1875 34.75 C-1.06890625 33.92757812 -0.9503125 33.10515625 -0.828125 32.2578125 C0.06540513 24.51984161 0.08570225 18.46329786 -4.1875 11.75 C-8.85660729 6.55129489 -13.94584855 3.48468465 -20.98046875 2.79296875 C-28.94408373 2.63792492 -34.32133112 5.57314114 -40.1875 10.75 C-40.8475 11.41 -41.5075 12.07 -42.1875 12.75 C-41.45727068 8.41543364 -39.47137893 6.83968878 -36.17578125 4.14453125 C-33.31489279 2.1379749 -30.46224423 0.95296727 -27.1875 -0.25 C-27.8475 -0.58 -28.5075 -0.91 -29.1875 -1.25 C-29.1875 -1.91 -29.1875 -2.57 -29.1875 -3.25 C-32.00751327 -4.66000664 -34.05757255 -4.49548451 -37.1875 -4.25 C-38.87506133 -3.28567924 -40.54416496 -2.28789581 -42.1875 -1.25 C-43.5075 -1.25 -44.8275 -1.25 -46.1875 -1.25 C-46.5175 -0.26 -46.8475 0.73 -47.1875 1.75 C-48.1775 1.09 -49.1675 0.43 -50.1875 -0.25 C-48.27338443 -1.23414433 -46.3561033 -2.21213349 -44.4375 -3.1875 C-43.37015625 -3.73277344 -42.3028125 -4.27804688 -41.203125 -4.83984375 C-27.9638687 -11.03073951 -11.72511356 -7.65943951 0 0 Z " fill="#199179" transform="translate(110.1875,138.25)"/>
<path d="M0 0 C2 2 2 2 2.046875 4.3125 C1.94890625 5.199375 1.8509375 6.08625 1.75 7 C1.66234375 7.886875 1.5746875 8.77375 1.484375 9.6875 C1 12 1 12 -1 14 C-1 14.99 -1 15.98 -1 17 C-1.31421071 19.00309329 -1.6451046 21.00371336 -2 23 C-5.46941546 22.54177532 -8.67395049 22.10868317 -12 21 C-12 20.34 -12 19.68 -12 19 C-12.66 19 -13.32 19 -14 19 C-14 18.34 -14 17.68 -14 17 C-14.99 16.67 -15.98 16.34 -17 16 C-15.68 14.68 -14.36 13.36 -13 12 C-13.33 11.01 -13.66 10.02 -14 9 C-13.5625 6.8125 -13.5625 6.8125 -13 5 C-11 6 -11 6 -10 7 C-9.67 5.02 -9.34 3.04 -9 1 C-5.75778445 -0.08073852 -3.39597063 -0.21676408 0 0 Z " fill="#3C3837" transform="translate(91,158)"/>
<path d="M0 0 C2.99693138 0.99897713 4.02709413 1.65130253 6 4 C6 4.66 6 5.32 6 6 C7.32 6 8.64 6 10 6 C10 6.99 10 7.98 10 9 C11.7015625 9.433125 11.7015625 9.433125 13.4375 9.875 C14.613125 10.24625 15.78875 10.6175 17 11 C17.33 11.66 17.66 12.32 18 13 C17.22265625 14.9453125 17.22265625 14.9453125 16.0625 17.125 C15.68222656 17.84945312 15.30195312 18.57390625 14.91015625 19.3203125 C14.60980469 19.87460938 14.30945312 20.42890625 14 21 C11.625 20.6875 11.625 20.6875 9 20 C8.34 19.01 7.68 18.02 7 17 C6.46375 16.484375 5.9275 15.96875 5.375 15.4375 C4 14 4 14 4 12 C3.01 12 2.02 12 1 12 C0.03929566 9.11788698 -0.10581883 7.30149956 -0.0625 4.3125 C-0.05347656 3.50425781 -0.04445313 2.69601563 -0.03515625 1.86328125 C-0.02355469 1.24839844 -0.01195313 0.63351563 0 0 Z " fill="#0E9476" transform="translate(23,187)"/>
<path d="M0 0 C1.60294922 0.00773438 1.60294922 0.00773438 3.23828125 0.015625 C4.35332031 0.03625 5.46835938 0.056875 6.6171875 0.078125 C8.30134766 0.08585938 8.30134766 0.08585938 10.01953125 0.09375 C18.33828411 0.17422161 18.33828411 0.17422161 19.4921875 1.328125 C19.20488695 3.66757236 18.87281971 6.0020393 18.4921875 8.328125 C16.5121875 8.328125 14.5321875 8.328125 12.4921875 8.328125 C12.4921875 7.998125 12.4921875 7.668125 12.4921875 7.328125 C14.1421875 7.328125 15.7921875 7.328125 17.4921875 7.328125 C17.4921875 5.348125 17.4921875 3.368125 17.4921875 1.328125 C10.5621875 1.328125 3.6321875 1.328125 -3.5078125 1.328125 C-3.5078125 1.988125 -3.5078125 2.648125 -3.5078125 3.328125 C-4.4978125 3.328125 -5.4878125 3.328125 -6.5078125 3.328125 C-6.5078125 13.558125 -6.5078125 23.788125 -6.5078125 34.328125 C1.4121875 34.658125 9.3321875 34.988125 17.4921875 35.328125 C17.4921875 33.348125 17.4921875 31.368125 17.4921875 29.328125 C12.5421875 29.328125 7.5921875 29.328125 2.4921875 29.328125 C2.4921875 27.018125 2.4921875 24.708125 2.4921875 22.328125 C2.8221875 22.328125 3.1521875 22.328125 3.4921875 22.328125 C3.4921875 24.308125 3.4921875 26.288125 3.4921875 28.328125 C5.09900391 28.31072266 5.09900391 28.31072266 6.73828125 28.29296875 C8.13541493 28.28359201 9.53255049 28.27449169 10.9296875 28.265625 C11.63673828 28.25724609 12.34378906 28.24886719 13.07226562 28.24023438 C14.87912309 28.23158912 16.68606353 28.27592489 18.4921875 28.328125 C19.4921875 29.328125 19.4921875 29.328125 19.6171875 32.328125 C19.4921875 35.328125 19.4921875 35.328125 18.4921875 36.328125 C14.35323192 36.60873216 10.20202527 36.55992494 6.0546875 36.578125 C4.88357422 36.59875 3.71246094 36.619375 2.50585938 36.640625 C1.38888672 36.64578125 0.27191406 36.6509375 -0.87890625 36.65625 C-1.90943115 36.6655957 -2.93995605 36.67494141 -4.00170898 36.68457031 C-4.82872314 36.56694336 -5.6557373 36.44931641 -6.5078125 36.328125 C-9.69906095 31.54125232 -8.84107528 26.04641259 -8.82348633 20.44921875 C-8.82032341 18.3354145 -8.84380263 16.22300654 -8.86914062 14.109375 C-8.87141345 12.76562676 -8.87211719 11.42187477 -8.87109375 10.078125 C-8.87407471 8.85609375 -8.87705566 7.6340625 -8.88012695 6.375 C-8.5078125 3.328125 -8.5078125 3.328125 -7.3293457 1.42675781 C-4.80025781 -0.09862693 -2.94343873 -0.02797304 0 0 Z " fill="#208972" transform="translate(159.5078125,163.671875)"/>
<path d="M0 0 C3.83593842 1.53437537 5.83430575 2.37046191 8.8125 4.875 C9.41707031 5.36742187 10.02164063 5.85984375 10.64453125 6.3671875 C12 8 12 8 12 12 C9.8828125 14.140625 9.8828125 14.140625 7.125 16.25 C6.22007813 16.95640625 5.31515625 17.6628125 4.3828125 18.390625 C2 20 2 20 0 20 C0 13.4 0 6.8 0 0 Z " fill="#DDB359" transform="translate(121,161)"/>
<path d="M0 0 C2.97 0 5.94 0 9 0 C9 0.33 9 0.66 9 1 C6.69 1 4.38 1 2 1 C2 13.54 2 26.08 2 39 C3.98 39 5.96 39 8 39 C9.22318866 35.33043403 9.23116124 31.87678997 9.31640625 28.05078125 C9.33718735 27.27816452 9.35796844 26.50554779 9.37937927 25.70951843 C9.44471038 23.2439352 9.50368315 20.77824639 9.5625 18.3125 C9.60570087 16.63996309 9.64931566 14.96743681 9.69335938 13.29492188 C9.8003749 9.1967225 9.90168857 5.09841704 10 1 C10.33 1 10.66 1 11 1 C11 13.87 11 26.74 11 40 C7.7 40 4.4 40 1 40 C0 39 0 39 -0.11352539 35.30639648 C-0.11336624 33.66128708 -0.10766988 32.01617269 -0.09765625 30.37109375 C-0.0962413 29.50686295 -0.09482635 28.64263214 -0.09336853 27.75221252 C-0.08775239 24.98060708 -0.07519719 22.2090812 -0.0625 19.4375 C-0.05748708 17.5631522 -0.05292381 15.68880315 -0.04882812 13.81445312 C-0.03777772 9.20960456 -0.0205023 4.60481579 0 0 Z " fill="#268A75" transform="translate(287,160)"/>
<path d="M0 0 C3.03136787 1.69417765 5.41192337 3.5951606 7.6875 6.25 C7.3575 6.91 7.0275 7.57 6.6875 8.25 C3.42289027 6.44587357 1.79820205 5.41605307 -0.3125 2.25 C-5.70036463 0.45404512 -11.20873303 0.61490054 -16.625 2.25 C-21.4546531 5.84416045 -23.83001844 10.18222189 -25.1875 16 C-25.29455916 18.78353822 -25.35411756 20.69330236 -24.3125 23.25 C-23.6525 23.91 -22.9925 24.57 -22.3125 25.25 C-22.6425 25.91 -22.9725 26.57 -23.3125 27.25 C-23.9725 27.25 -24.6325 27.25 -25.3125 27.25 C-28.16106221 21.90894585 -28.32940945 15.75742422 -26.66015625 10 C-24.41399774 4.90999274 -21.17933484 1.88102672 -16.3125 -0.75 C-10.71253594 -2.61665469 -5.36829769 -2.56351294 0 0 Z " fill="#444645" transform="translate(96.3125,145.75)"/>
<path d="M0 0 C3 0.25 3 0.25 5 2.25 C5.3125 5.25 5.3125 5.25 5 8.25 C1.5647952 10.54013653 0.014669 10.42842973 -4 10.25 C-4.9765625 4.1953125 -4.9765625 4.1953125 -5 2.25 C-3 0.25 -3 0.25 0 0 Z " fill="#251B19" transform="translate(88,157.75)"/>
<path d="M0 0 C6.73777314 -0.60158689 10.7414085 0.67248081 16 5 C16.33 5.66 16.66 6.32 17 7 C17.99 7.33 18.98 7.66 20 8 C23.80130281 16.0249726 23.86451143 24.37663462 22 33 C21.34 33 20.68 33 20 33 C20.11859375 32.17757812 20.2371875 31.35515625 20.359375 30.5078125 C21.25290513 22.76984161 21.27320225 16.71329786 17 10 C12.15551641 4.60602637 7.16764774 1.97740651 0 1 C0 0.67 0 0.34 0 0 Z " fill="#318D7B" transform="translate(89,140)"/>
<path d="M0 0 C2.46305136 1.72707984 3.82948667 3.14470202 4.42675781 6.140625 C4.61182095 8.77079609 4.6438318 11.36354791 4.625 14 C4.65722656 14.90234375 4.68945312 15.8046875 4.72265625 16.734375 C4.72645277 19.30082577 4.63524469 21.51238407 4 24 C0.74566464 27.00261881 -0.96860803 27.9236006 -5.375 28.25 C-6.24125 28.1675 -7.1075 28.085 -8 28 C-7 26 -7 26 -4.125 24.9375 C-2.578125 24.4734375 -2.578125 24.4734375 -1 24 C-0.01 23.67 0.98 23.34 2 23 C1.86111494 19.72883268 1.71269508 16.458166 1.5625 13.1875 C1.52318359 12.25873047 1.48386719 11.32996094 1.44335938 10.37304688 C1.40146484 9.48037109 1.35957031 8.58769531 1.31640625 7.66796875 C1.27974854 6.84578857 1.24309082 6.0236084 1.20532227 5.17651367 C1.06572228 2.82094822 1.06572228 2.82094822 0 0 Z " fill="#278772" transform="translate(327,173)"/>
<path d="M0 0 C0.66 0 1.32 0 2 0 C1.835 0.804375 1.67 1.60875 1.5 2.4375 C0.36614488 10.51621776 0.50597176 16.91432358 5 24 C6.88406206 26.02511484 8.7118691 27.37924061 11 29 C12.175625 29.8971875 12.175625 29.8971875 13.375 30.8125 C13.91125 31.204375 14.4475 31.59625 15 32 C11.09813806 31.72777707 9.32155906 31.27669035 6.3125 28.6875 C5.549375 27.800625 4.78625 26.91375 4 26 C3.46375 25.38125 2.9275 24.7625 2.375 24.125 C-1.87585483 17.55549709 -2.91789896 11.78426 -2 4 C-0.98046875 1.66796875 -0.98046875 1.66796875 0 0 Z " fill="#318273" transform="translate(65,153)"/>
<path d="M0 0 C0 0.66 0 1.32 0 2 C-0.78375 2.4125 -1.5675 2.825 -2.375 3.25 C-5.6733333 5.44888887 -6.07871568 7.23110958 -7 11 C-7.66 11 -8.32 11 -9 11 C-9 12.98 -9 14.96 -9 17 C-8.34 17 -7.68 17 -7 17 C-6.9175 17.5775 -6.835 18.155 -6.75 18.75 C-6.12577882 21.18168052 -6.12577882 21.18168052 -3.9375 23.0625 C-3.298125 23.701875 -2.65875 24.34125 -2 25 C-2 25.99 -2 26.98 -2 28 C-5.37329915 26.60415208 -7.04232662 25.07634389 -9 22 C-10.7354912 16.7935264 -10.66344383 11.85065911 -8.8125 6.6875 C-6.64734786 3.477102 -4.15568554 0 0 0 Z " fill="#258A71" transform="translate(192,171)"/>
<path d="M0 0 C5.625 2.25 5.625 2.25 8 6 C5.03 5.505 5.03 5.505 2 5 C2 8.96 2 12.92 2 17 C2.66 17.33 3.32 17.66 4 18 C2.02 18.99 2.02 18.99 0 20 C0 13.4 0 6.8 0 0 Z " fill="#ABB172" transform="translate(121,161)"/>
<path d="M0 0 C1.3096875 0.00386719 2.619375 0.00773438 3.96875 0.01171875 C7.13353135 0.2812853 8.87043236 0.62877174 11.5 2.3125 C10.51 2.8075 10.51 2.8075 9.5 3.3125 C8.51 2.9825 7.52 2.6525 6.5 2.3125 C4.27425665 2.08798542 2.04418481 1.90467122 -0.1875 1.75 C-1.36699219 1.66621094 -2.54648437 1.58242187 -3.76171875 1.49609375 C-4.66535156 1.43550781 -5.56898438 1.37492188 -6.5 1.3125 C-6.83 2.6325 -7.16 3.9525 -7.5 5.3125 C-8.16 5.3125 -8.82 5.3125 -9.5 5.3125 C-9.83 5.9725 -10.16 6.6325 -10.5 7.3125 C-7.86 7.6425 -5.22 7.9725 -2.5 8.3125 C-2.5 8.6425 -2.5 8.9725 -2.5 9.3125 C-8.65234375 10.19140625 -8.65234375 10.19140625 -10.5 10.3125 C-11.5 9.3125 -11.5 9.3125 -11.8125 6.4375 C-11.5 3.3125 -11.5 3.3125 -9.94921875 1.63671875 C-6.54577915 -0.20341845 -3.8477593 -0.04923314 0 0 Z " fill="#238873" transform="translate(315.5,169.6875)"/>
<path d="M0 0 C0 0.66 0 1.32 0 2 C-3.3 2 -6.6 2 -10 2 C-10.33 3.32 -10.66 4.64 -11 6 C-11.99 6.66 -12.98 7.32 -14 8 C-14.99 7.67 -15.98 7.34 -17 7 C-16.34 10.3 -15.68 13.6 -15 17 C-18 14 -18 14 -18.4375 10.0625 C-18.29715612 7.33080655 -18.03558264 6.06438764 -16.6875 3.625 C-11.74022179 0.63362248 -5.72496177 0 0 0 Z " fill="#208C74" transform="translate(320,181)"/>
<path d="M0 0 C1.32 0 2.64 0 4 0 C4 0.66 4 1.32 4 2 C3.34 2 2.68 2 2 2 C2 8.27 2 14.54 2 21 C0.68 21.33 -0.64 21.66 -2 22 C-1.34 21.67 -0.68 21.34 0 21 C0 14.07 0 7.14 0 0 Z " fill="#238873" transform="translate(237,171)"/>
<path d="M0 0 C7.85680809 0.96956355 13.47363548 3.59320708 20 8 C20.99 8.66 21.98 9.32 23 10 C22.67 10.66 22.34 11.32 22 12 C20.35 12 18.7 12 17 12 C16.89751953 11.09314453 16.89751953 11.09314453 16.79296875 10.16796875 C15.42196152 6.41964849 12.03182684 5.64894268 8.58984375 4.0390625 C5.73475514 2.893582 3.06922126 2.24230694 0 2 C0 1.34 0 0.68 0 0 Z " fill="#2D9378" transform="translate(91,131)"/>
<path d="M0 0 C2.475 0.495 2.475 0.495 5 1 C5 1.66 5 2.32 5 3 C5.66 3 6.32 3 7 3 C7 3.66 7 4.32 7 5 C7.99 4.67 8.98 4.34 10 4 C10 4.66 10 5.32 10 6 C13.3 6 16.6 6 20 6 C20.33 6.66 20.66 7.32 21 8 C13.74866471 8.47205799 8.91395911 8.43546933 3 4 C1.0625 1.75 1.0625 1.75 0 0 Z " fill="#464A46" transform="translate(72,174)"/>
<path d="M0 0 C0.33 1.32 0.66 2.64 1 4 C0.34 4 -0.32 4 -1 4 C-1.1546875 4.9590625 -1.1546875 4.9590625 -1.3125 5.9375 C-1.539375 6.618125 -1.76625 7.29875 -2 8 C-2.99 8.33 -3.98 8.66 -5 9 C-5.99 10.485 -5.99 10.485 -7 12 C-9.3828125 12.73046875 -9.3828125 12.73046875 -12.125 13.1875 C-13.03507812 13.34605469 -13.94515625 13.50460938 -14.8828125 13.66796875 C-15.58148438 13.77753906 -16.28015625 13.88710937 -17 14 C-15.67432122 11.34864245 -14.47649732 11.24830608 -11.75 10.1875 C-6.3647316 7.89298182 -3.24523852 4.86785778 0 0 Z " fill="#2A8472" transform="translate(108,173)"/>
<path d="M0 0 C-3.36781647 2.24521098 -5.93739968 2.70831461 -9.84375 3.4375 C-12.27244046 3.94566991 -12.27244046 3.94566991 -15 6 C-16.32 6 -17.64 6 -19 6 C-19.33 6.99 -19.66 7.98 -20 9 C-20.99 8.34 -21.98 7.68 -23 7 C-21.08588443 6.01585567 -19.1686033 5.03786651 -17.25 4.0625 C-16.18265625 3.51722656 -15.1153125 2.97195312 -14.015625 2.41015625 C-9.1136744 0.11792287 -5.42442333 -0.10431583 0 0 Z " fill="#2C9077" transform="translate(83,131)"/>
<path d="M0 0 C0.8125 1.6875 0.8125 1.6875 1 4 C-1.1875 6.8125 -1.1875 6.8125 -4 9 C-6.3125 8.8125 -6.3125 8.8125 -8 8 C-6.35 7.67 -4.7 7.34 -3 7 C-2.67 5.68 -2.34 4.36 -2 3 C-4.31 2.34 -6.62 1.68 -9 1 C-5.64919071 -1.10976881 -3.77897651 -1.0497157 0 0 Z " fill="#248771" transform="translate(281,192)"/>
<path d="M0 0 C0 1.65 0 3.3 0 5 C-0.99 4.67 -1.98 4.34 -3 4 C-2.34 4 -1.68 4 -1 4 C-1 3.34 -1 2.68 -1 2 C-4.81813447 2.27540704 -4.81813447 2.27540704 -8 4 C-6.68 4.66 -5.36 5.32 -4 6 C-5.98 6 -7.96 6 -10 6 C-10.33 4.02 -10.66 2.04 -11 0 C-9.54263913 -0.19491452 -8.08405407 -0.38069358 -6.625 -0.5625 C-5.81289063 -0.66691406 -5.00078125 -0.77132812 -4.1640625 -0.87890625 C-2 -1 -2 -1 0 0 Z " fill="#1A8771" transform="translate(272,177)"/>
<path d="M0 0 C0.33 0.66 0.66 1.32 1 2 C1.99 2.33 2.98 2.66 4 3 C-0.58921384 6.15654048 -4.29370646 8.57202798 -10 9 C-8 7 -8 7 -6.125 6.1875 C-3.34021272 4.63129534 -1.87478285 2.54434816 0 0 Z " fill="#218A73" transform="translate(100,210)"/>
<path d="M0 0 C0.66 0 1.32 0 2 0 C1.34 5.61 0.68 11.22 0 17 C-2 15 -2 15 -2.265625 12.5390625 C-2.26046875 11.57742187 -2.2553125 10.61578125 -2.25 9.625 C-2.25515625 8.66851562 -2.2603125 7.71203125 -2.265625 6.7265625 C-1.99896864 3.98941342 -1.39742087 2.34012543 0 0 Z " fill="#1F846E" transform="translate(65,153)"/>
<path d="M0 0 C0.66 0.33 1.32 0.66 2 1 C1.01063903 3.33848955 0.00982111 5.67041269 -1 8 C-1.33 8.78375 -1.66 9.5675 -2 10.375 C-3 12 -3 12 -6 13 C-5.57476184 11.39253944 -5.13429874 9.78910164 -4.6875 8.1875 C-4.44386719 7.29417969 -4.20023438 6.40085938 -3.94921875 5.48046875 C-2.9799181 2.94752262 -2.04990396 1.7283504 0 0 Z " fill="#1A9B83" transform="translate(43,196)"/>
<path d="M0 0 C1.485 0.99 1.485 0.99 3 2 C3.328125 4.828125 3.328125 4.828125 3.25 8.25 C3.23453125 9.36890625 3.2190625 10.4878125 3.203125 11.640625 C3.01049201 14.82647837 2.58889121 17.86557907 2 21 C1.34 21 0.68 21 0 21 C0.14308594 19.71416016 0.14308594 19.71416016 0.2890625 18.40234375 C0.90312011 12.06898209 1.35766688 6.96351034 -1 1 C-0.67 0.67 -0.34 0.34 0 0 Z " fill="#22876F" transform="translate(109,152)"/>
<path d="M0 0 C0.66 0.33 1.32 0.66 2 1 C2 1.99 2 2.98 2 4 C-1.1875 5.25 -1.1875 5.25 -5 6 C-7.9375 4.125 -7.9375 4.125 -10 2 C-7.63591793 1.24011648 -6.30986733 0.9179763 -3.875 1.5625 C-3.25625 1.706875 -2.6375 1.85125 -2 2 C-1.34 1.34 -0.68 0.68 0 0 Z " fill="#423F40" transform="translate(83,155)"/>
<path d="M0 0 C0.2475 0.5775 0.495 1.155 0.75 1.75 C1.9318612 4.13266887 1.9318612 4.13266887 4.125 6.0625 C6 8 6 8 6 11 C3.53199953 9.84826645 1.95216435 8.95216435 0 7 C-0.125 3.375 -0.125 3.375 0 0 Z " fill="#1C8D76" transform="translate(184,188)"/>
<path d="M0 0 C-0.33 1.65 -0.66 3.3 -1 5 C-1.33 3.68 -1.66 2.36 -2 1 C-3.98 1.66 -5.96 2.32 -8 3 C-7.67 2.01 -7.34 1.02 -7 0 C-3.86650268 -1.04449911 -3.01031744 -0.93423645 0 0 Z " fill="#484243" transform="translate(87,150)"/>
<path d="M0 0 C4 4.625 4 4.625 4 8 C2.68 7.67 1.36 7.34 0 7 C-0.38133299 5.0085944 -0.71325582 3.00720923 -1 1 C-0.67 0.67 -0.34 0.34 0 0 Z " fill="#219577" transform="translate(115,143)"/>
<path d="M0 0 C3.63 0.33 7.26 0.66 11 1 C11 1.33 11 1.66 11 2 C5.06 2.495 5.06 2.495 -1 3 C-0.67 2.01 -0.34 1.02 0 0 Z " fill="#1D8B73" transform="translate(267,186)"/>
<path d="M0 0 C1.09570312 0.00902344 2.19140625 0.01804688 3.3203125 0.02734375 C4.16335938 0.03894531 5.00640625 0.05054688 5.875 0.0625 C5.875 0.3925 5.875 0.7225 5.875 1.0625 C2.575 1.0625 -0.725 1.0625 -4.125 1.0625 C-4.125 1.7225 -4.125 2.3825 -4.125 3.0625 C-5.445 2.4025 -6.765 1.7425 -8.125 1.0625 C-5.36047967 -0.31976016 -3.0788637 -0.03275387 0 0 Z " fill="#1B8B6E" transform="translate(268.125,169.9375)"/>
<path d="M0 0 C1.32 0 2.64 0 4 0 C4 0.99 4 1.98 4 3 C4.99 3 5.98 3 7 3 C7 3.66 7 4.32 7 5 C4.0625 4.1875 4.0625 4.1875 1 3 C0.67 2.01 0.34 1.02 0 0 Z " fill="#2F957E" transform="translate(33,208)"/>
<path d="M0 0 C0.99 0 1.98 0 3 0 C3.6875 1.75 3.6875 1.75 4 4 C2.5625 6.25 2.5625 6.25 1 8 C0.67 5.36 0.34 2.72 0 0 Z " fill="#198F76" transform="translate(112,195)"/>
</svg>
